{"title":"Criminal.2016.BRRip.480p.x264.AAC-VYTO [P2PDL]","uid":15310361,"size":481136669,"categoryP":"video","categoryS":"movies","magnet":"?xt=urn:btih:54470a734389b1f934bc66dbdb9402b8b504869c&amp;dn=Criminal.2016.BRRip.480p.x264.AAC-VYTO+%5BP2PDL%5D&amp;tr=udp%3A%2F%2Ftracker.leechers-paradise.org%3A6969&amp;tr=udp%3A%2F%2Fzer0day.ch%3A1337&amp;tr=udp%3A%2F%2Fopen.demonii.com%3A1337&amp;tr=udp%3A%2F%2Ftracker.coppersurfer.tk%3A6969&amp;tr=udp%3A%2F%2Fexodus.desync.com%3A6969","seeders":2,"leechers":4,"uploader":"VYTOP2PDL","files":7,"time":1468575582,"description":"____    ____ ____    ____ .___________.  ______   \r\n     /   /      /   / |           | /  __    \r\n    /   /      /   /  `---|  |----`|  |  |  | \r\n        /     _    _/       |  |     |  |  |  | \r\n       /        |  |         |  |     |  `--'  | \r\n    __/         |__|         |__|      ______/  \r\n                                                  \r\nPresenting Small Encodes with quality for years!\r\n                                                                                                   \r\n                                                                                                   \r\n\r\n\r\nCriminal.2016.BRRip.480p.x264.AAC-VYTO\r\n\r\n\r\nGenre: Action, Crime, Drama  \nhttp://www.imdb.com/title/tt3014866/\r\n\r\n\r\nFormat                      : MPEG-4\r\nFile size                   : 452 MiB\r\nDuration                    : 1h 53mn\r\nOverall bit rate            : 556 Kbps\r\n\r\nVideo\r\nFormat                      : AVC\r\nDuration                    : 1h 53mn\r\nBit rate                    : 513 Kbps\r\nWidth                       : 720 pixels\r\nHeight                      : 304 pixels\r\nDisplay aspect ratio        : 2.35:1\r\nFrame rate mode             : Constant\r\nFrame rate                  : 23.976  fps\r\nStream size                 : 417 MiB (92%)\r\nWriting library             : x264 core 148 r2705 3f5ed56\r\n\r\nAudio\r\nFormat                      : AAC\r\nBit rate mode               : Variable\r\nBit rate                    : 40.0 Kbps\r\nChannel(s)                  : 2 channels\r\nChannel positions           : Front: L R\r\nSampling rate               : 44.1 KHz\r\nFrame rate                  : 21.533 fps (1024 spf)\r\nCompression mode            : Lossy\r\nStream size                 : 32.5 MiB (7%)\r\nLanguage                    : English\r\n\r\nSubtitle                    : Yes (English)\r\n\r\nScreen Shots: \r\n \nhttps://ititli.com/XE0 \nhttps://ititli.com/XEA \nhttps://ititli.com/XEl \nhttps://ititli.com/XEm \nhttps://ititli.com/XEx \nhttps://ititli.com/XE7 \nhttps://ititli.com/XEC \nhttps://ititli.com/XEF \nhttps://ititli.com/XEJ \nhttps://ititli.com/XE5 \nhttps://ititli.com/XEB \nhttps://ititli.com/XEN\r\n\r\n----------------------------------------------------------------------------------------------------\r\n\r\n\r\nEncoder Notes: Looking For Early Access To Anything You Can Provide WEBDL, DVDScr, DVDR, BluRay,\r\nDirect Audio, Music Releases and Seedboxes. If You Got anything to offer please contact us.\r\n\r\nSupport us by donating BC - 1FgwdzPsd1y25Gea8wP1qni35uGCtmkRCD\r\n\r\n\r\nFind us and join us!","torrent":{"xt":"urn:btih:54470a734389b1f934bc66dbdb9402b8b504869c","amp;dn":"Criminal.2016.BRRip.480p.x264.AAC-VYTO+%5BP2PDL%5D","amp;tr":["udp%3A%2F%2Ftracker.leechers-paradise.org%3A6969","udp%3A%2F%2Fzer0day.ch%3A1337","udp%3A%2F%2Fopen.demonii.com%3A1337","udp%3A%2F%2Ftracker.coppersurfer.tk%3A6969","udp%3A%2F%2Fexodus.desync.com%3A6969"],"infoHash":"54470a734389b1f934bc66dbdb9402b8b504869c","infoHashBuffer":{"type":"Buffer","data":[84,71,10,115,67,137,177,249,52,188,102,219,219,148,2,184,181,4,134,156]},"announce":[],"urlList":[]}}